<mxfile host="app.diagrams.net" modified="2024-05-16T09:59:47.782Z" agent="Mozilla/5.0 (Windows NT 10.0; Win64; x64) AppleWebKit/537.36 (KHTML, like Gecko) Chrome/123.0.0.0 Safari/537.36 OPR/109.0.0.0" etag="ALZHd0ed_2amc5PgD51Z" version="24.3.1" type="device">
  <diagram name="PÃ¡gina-1" id="YcLfW_2Ug7yHeYoM5ecM">
    <mxGraphModel dx="1393" dy="758" grid="1" gridSize="10" guides="1" tooltips="1" connect="1" arrows="1" fold="1" page="1" pageScale="1" pageWidth="827" pageHeight="1169" math="0" shadow="0">
      <root>
        <mxCell id="0" />
        <mxCell id="1" parent="0" />
        <mxCell id="yy26HUqjt9OM3cFI3hvR-1" value="Users" style="whiteSpace=wrap;html=1;align=center;" vertex="1" parent="1">
          <mxGeometry x="176" y="410" width="100" height="40" as="geometry" />
        </mxCell>
        <mxCell id="yy26HUqjt9OM3cFI3hvR-4" value="Relationship" style="shape=rhombus;perimeter=rhombusPerimeter;whiteSpace=wrap;html=1;align=center;" vertex="1" parent="1">
          <mxGeometry x="406" y="400" width="120" height="60" as="geometry" />
        </mxCell>
        <mxCell id="yy26HUqjt9OM3cFI3hvR-5" value="Cars" style="whiteSpace=wrap;html=1;align=center;" vertex="1" parent="1">
          <mxGeometry x="176" y="710" width="100" height="40" as="geometry" />
        </mxCell>
        <mxCell id="yy26HUqjt9OM3cFI3hvR-6" value="Services" style="whiteSpace=wrap;html=1;align=center;" vertex="1" parent="1">
          <mxGeometry x="656" y="710" width="100" height="40" as="geometry" />
        </mxCell>
        <mxCell id="yy26HUqjt9OM3cFI3hvR-8" value="user_id" style="ellipse;whiteSpace=wrap;html=1;align=center;fontStyle=4;" vertex="1" parent="1">
          <mxGeometry x="66" y="330" width="50" height="40" as="geometry" />
        </mxCell>
        <mxCell id="yy26HUqjt9OM3cFI3hvR-9" value="username" style="ellipse;whiteSpace=wrap;html=1;align=center;" vertex="1" parent="1">
          <mxGeometry x="126" y="320" width="60" height="40" as="geometry" />
        </mxCell>
        <mxCell id="yy26HUqjt9OM3cFI3hvR-10" value="password" style="ellipse;whiteSpace=wrap;html=1;align=center;" vertex="1" parent="1">
          <mxGeometry x="196" y="320" width="60" height="40" as="geometry" />
        </mxCell>
        <mxCell id="yy26HUqjt9OM3cFI3hvR-11" value="email" style="ellipse;whiteSpace=wrap;html=1;align=center;" vertex="1" parent="1">
          <mxGeometry x="266" y="320" width="40" height="40" as="geometry" />
        </mxCell>
        <mxCell id="yy26HUqjt9OM3cFI3hvR-12" value="firstname" style="ellipse;whiteSpace=wrap;html=1;align=center;" vertex="1" parent="1">
          <mxGeometry x="61" y="380" width="60" height="40" as="geometry" />
        </mxCell>
        <mxCell id="yy26HUqjt9OM3cFI3hvR-13" value="lastname" style="ellipse;whiteSpace=wrap;html=1;align=center;" vertex="1" parent="1">
          <mxGeometry x="61" y="430" width="60" height="40" as="geometry" />
        </mxCell>
        <mxCell id="yy26HUqjt9OM3cFI3hvR-14" value="gender" style="ellipse;whiteSpace=wrap;html=1;align=center;" vertex="1" parent="1">
          <mxGeometry x="71" y="480" width="50" height="40" as="geometry" />
        </mxCell>
        <mxCell id="yy26HUqjt9OM3cFI3hvR-15" value="account_status" style="ellipse;whiteSpace=wrap;html=1;align=center;" vertex="1" parent="1">
          <mxGeometry x="51" y="530" width="90" height="40" as="geometry" />
        </mxCell>
        <mxCell id="yy26HUqjt9OM3cFI3hvR-17" value="role" style="ellipse;whiteSpace=wrap;html=1;align=center;" vertex="1" parent="1">
          <mxGeometry x="316" y="320" width="40" height="40" as="geometry" />
        </mxCell>
        <mxCell id="yy26HUqjt9OM3cFI3hvR-19" value="Appointments" style="whiteSpace=wrap;html=1;align=center;" vertex="1" parent="1">
          <mxGeometry x="656" y="410" width="100" height="40" as="geometry" />
        </mxCell>
        <mxCell id="yy26HUqjt9OM3cFI3hvR-20" value="Invoices" style="whiteSpace=wrap;html=1;align=center;" vertex="1" parent="1">
          <mxGeometry x="656" y="120" width="100" height="40" as="geometry" />
        </mxCell>
        <mxCell id="yy26HUqjt9OM3cFI3hvR-21" value="Relationship" style="shape=rhombus;perimeter=rhombusPerimeter;whiteSpace=wrap;html=1;align=center;" vertex="1" parent="1">
          <mxGeometry x="646" y="550" width="120" height="60" as="geometry" />
        </mxCell>
        <mxCell id="yy26HUqjt9OM3cFI3hvR-22" value="" style="fontSize=12;html=1;endArrow=ERoneToMany;rounded=0;entryX=0.5;entryY=0;entryDx=0;entryDy=0;exitX=0.5;exitY=1;exitDx=0;exitDy=0;" edge="1" parent="1" source="yy26HUqjt9OM3cFI3hvR-21" target="yy26HUqjt9OM3cFI3hvR-6">
          <mxGeometry width="100" height="100" relative="1" as="geometry">
            <mxPoint x="356" y="610" as="sourcePoint" />
            <mxPoint x="456" y="510" as="targetPoint" />
          </mxGeometry>
        </mxCell>
        <mxCell id="yy26HUqjt9OM3cFI3hvR-23" value="" style="fontSize=12;html=1;endArrow=ERmandOne;rounded=0;entryX=0.5;entryY=1;entryDx=0;entryDy=0;exitX=0.5;exitY=0;exitDx=0;exitDy=0;" edge="1" parent="1" source="yy26HUqjt9OM3cFI3hvR-21" target="yy26HUqjt9OM3cFI3hvR-19">
          <mxGeometry width="100" height="100" relative="1" as="geometry">
            <mxPoint x="356" y="610" as="sourcePoint" />
            <mxPoint x="456" y="510" as="targetPoint" />
          </mxGeometry>
        </mxCell>
        <mxCell id="yy26HUqjt9OM3cFI3hvR-24" value="Relationship" style="shape=rhombus;perimeter=rhombusPerimeter;whiteSpace=wrap;html=1;align=center;" vertex="1" parent="1">
          <mxGeometry x="406" y="700" width="120" height="60" as="geometry" />
        </mxCell>
        <mxCell id="yy26HUqjt9OM3cFI3hvR-26" value="" style="edgeStyle=entityRelationEdgeStyle;fontSize=12;html=1;endArrow=ERzeroToMany;endFill=1;rounded=0;entryX=0;entryY=0.5;entryDx=0;entryDy=0;exitX=1;exitY=0.5;exitDx=0;exitDy=0;" edge="1" parent="1" source="yy26HUqjt9OM3cFI3hvR-24" target="yy26HUqjt9OM3cFI3hvR-6">
          <mxGeometry width="100" height="100" relative="1" as="geometry">
            <mxPoint x="576" y="890" as="sourcePoint" />
            <mxPoint x="676" y="790" as="targetPoint" />
          </mxGeometry>
        </mxCell>
        <mxCell id="yy26HUqjt9OM3cFI3hvR-27" value="" style="edgeStyle=entityRelationEdgeStyle;fontSize=12;html=1;endArrow=ERoneToMany;rounded=0;exitX=0;exitY=0.5;exitDx=0;exitDy=0;entryX=1;entryY=0.5;entryDx=0;entryDy=0;" edge="1" parent="1" source="yy26HUqjt9OM3cFI3hvR-24" target="yy26HUqjt9OM3cFI3hvR-5">
          <mxGeometry width="100" height="100" relative="1" as="geometry">
            <mxPoint x="356" y="610" as="sourcePoint" />
            <mxPoint x="456" y="510" as="targetPoint" />
          </mxGeometry>
        </mxCell>
        <mxCell id="yy26HUqjt9OM3cFI3hvR-28" value="Relationship" style="shape=rhombus;perimeter=rhombusPerimeter;whiteSpace=wrap;html=1;align=center;" vertex="1" parent="1">
          <mxGeometry x="646" y="250" width="120" height="60" as="geometry" />
        </mxCell>
        <mxCell id="yy26HUqjt9OM3cFI3hvR-29" value="" style="fontSize=12;html=1;endArrow=ERmandOne;rounded=0;entryX=0.5;entryY=1;entryDx=0;entryDy=0;exitX=0.5;exitY=0;exitDx=0;exitDy=0;" edge="1" parent="1" source="yy26HUqjt9OM3cFI3hvR-28" target="yy26HUqjt9OM3cFI3hvR-20">
          <mxGeometry width="100" height="100" relative="1" as="geometry">
            <mxPoint x="330" y="440" as="sourcePoint" />
            <mxPoint x="430" y="340" as="targetPoint" />
          </mxGeometry>
        </mxCell>
        <mxCell id="yy26HUqjt9OM3cFI3hvR-30" value="" style="fontSize=12;html=1;endArrow=ERmandOne;rounded=0;entryX=0.5;entryY=0;entryDx=0;entryDy=0;exitX=0.5;exitY=1;exitDx=0;exitDy=0;" edge="1" parent="1" source="yy26HUqjt9OM3cFI3hvR-28" target="yy26HUqjt9OM3cFI3hvR-19">
          <mxGeometry width="100" height="100" relative="1" as="geometry">
            <mxPoint x="330" y="440" as="sourcePoint" />
            <mxPoint x="430" y="340" as="targetPoint" />
          </mxGeometry>
        </mxCell>
        <mxCell id="yy26HUqjt9OM3cFI3hvR-31" value="" style="edgeStyle=entityRelationEdgeStyle;fontSize=12;html=1;endArrow=ERzeroToMany;endFill=1;rounded=0;entryX=0;entryY=0.5;entryDx=0;entryDy=0;exitX=1;exitY=0.5;exitDx=0;exitDy=0;" edge="1" parent="1" source="yy26HUqjt9OM3cFI3hvR-4" target="yy26HUqjt9OM3cFI3hvR-19">
          <mxGeometry width="100" height="100" relative="1" as="geometry">
            <mxPoint x="330" y="540" as="sourcePoint" />
            <mxPoint x="430" y="440" as="targetPoint" />
          </mxGeometry>
        </mxCell>
        <mxCell id="yy26HUqjt9OM3cFI3hvR-32" value="" style="edgeStyle=entityRelationEdgeStyle;fontSize=12;html=1;endArrow=ERzeroToOne;endFill=1;rounded=0;entryX=1;entryY=0.5;entryDx=0;entryDy=0;exitX=0;exitY=0.5;exitDx=0;exitDy=0;" edge="1" parent="1" source="yy26HUqjt9OM3cFI3hvR-4" target="yy26HUqjt9OM3cFI3hvR-1">
          <mxGeometry width="100" height="100" relative="1" as="geometry">
            <mxPoint x="306" y="570" as="sourcePoint" />
            <mxPoint x="406" y="470" as="targetPoint" />
          </mxGeometry>
        </mxCell>
        <mxCell id="yy26HUqjt9OM3cFI3hvR-33" value="Relationship" style="shape=rhombus;perimeter=rhombusPerimeter;whiteSpace=wrap;html=1;align=center;" vertex="1" parent="1">
          <mxGeometry x="166" y="550" width="120" height="60" as="geometry" />
        </mxCell>
        <mxCell id="yy26HUqjt9OM3cFI3hvR-34" value="" style="fontSize=12;html=1;endArrow=ERoneToMany;rounded=0;entryX=0.5;entryY=0;entryDx=0;entryDy=0;exitX=0.5;exitY=1;exitDx=0;exitDy=0;" edge="1" parent="1" source="yy26HUqjt9OM3cFI3hvR-33" target="yy26HUqjt9OM3cFI3hvR-5">
          <mxGeometry width="100" height="100" relative="1" as="geometry">
            <mxPoint x="330" y="540" as="sourcePoint" />
            <mxPoint x="430" y="440" as="targetPoint" />
          </mxGeometry>
        </mxCell>
        <mxCell id="yy26HUqjt9OM3cFI3hvR-35" value="" style="fontSize=12;html=1;endArrow=ERmandOne;rounded=0;entryX=0.5;entryY=1;entryDx=0;entryDy=0;exitX=0.5;exitY=0;exitDx=0;exitDy=0;" edge="1" parent="1" source="yy26HUqjt9OM3cFI3hvR-33" target="yy26HUqjt9OM3cFI3hvR-1">
          <mxGeometry width="100" height="100" relative="1" as="geometry">
            <mxPoint x="330" y="540" as="sourcePoint" />
            <mxPoint x="430" y="440" as="targetPoint" />
          </mxGeometry>
        </mxCell>
      </root>
    </mxGraphModel>
  </diagram>
</mxfile>
